PathFileType	4	(X/Y/Z)	..\data\2014004\dynamic\2014004_C5_01.trc
DataRate	CameraRate	NumFrames	NumMarkers	Units	OrigDataRate	OrigDataStartFrame	OrigNumFrames
100.000000	100.000000	4	52	mm	100.000000	125	143
Frame#	Time	L_IAS			L_IPS			R_IPS			R_IAS			L_FTC			L_FLE			L_FME			L_FAX			L_TTC			L_FAL			L_TAM			L_FCC			L_FM1			L_FM2			L_FM5			R_FTC			R_FLE			R_FME			R_FAX			R_TTC			R_FAL			R_TAM			R_FCC			R_FM1			R_FM2			R_FM5			CV7			TV10			SXS			SJN			L_SIA			L_SRS			L_SAA			L_SAE			L_HLE			L_HME			L_UOA			L_RSP			L_UHE			L_HM2			L_HM5			R_SIA			R_SRS			R_SAA			R_SAE			R_HLE			R_HME			R_UOA			R_RSP			R_UHE			R_HM2			R_HM5			
		X1	Y1	Z1	X2	Y2	Z2	X3	Y3	Z3	X4	Y4	Z4	X5	Y5	Z5	X6	Y6	Z6	X7	Y7	Z7	X8	Y8	Z8	X9	Y9	Z9	X10	Y10	Z10	X11	Y11	Z11	X12	Y12	Z12	X13	Y13	Z13	X14	Y14	Z14	X15	Y15	Z15	X16	Y16	Z16	X17	Y17	Z17	X18	Y18	Z18	X19	Y19	Z19	X20	Y20	Z20	X21	Y21	Z21	X22	Y22	Z22	X23	Y23	Z23	X24	Y24	Z24	X25	Y25	Z25	X26	Y26	Z26	X27	Y27	Z27	X28	Y28	Z28	X29	Y29	Z29	X30	Y30	Z30	X31	Y31	Z31	X32	Y32	Z32	X33	Y33	Z33	X34	Y34	Z34	X35	Y35	Z35	X36	Y36	Z36	X37	Y37	Z37	X38	Y38	Z38	X39	Y39	Z39	X40	Y40	Z40	X41	Y41	Z41	X42	Y42	Z42	X43	Y43	Z43	X44	Y44	Z44	X45	Y45	Z45	X46	Y46	Z46	X47	Y47	Z47	X48	Y48	Z48	X49	Y49	Z49	X50	Y50	Z50	X51	Y51	Z51	X52	Y52	Z52	

126	1.25	1837.069580078125	952.5090942382815	-320.9794311523438	1641.021484375	985.8280029296877	-251.5791625976563	1646.676635742188	988.0347290039065	-160.0392761230469	1845.644775390625	955.6575317382815	-90.73214721679689	1758.91796875	896.2510986328127	-395.2522888183595	1909.41943359375	502.2834777832032	-365.5869140625001	1937.280029296875	510.7281494140626	-239.8663635253907	1894.902221679688	440.0574035644532	-371.8674316406251	1968.023315429688	425.0228881835939	-311.2019958496094	1861.2158203125	78.19649505615236	-340.6497802734376	1897.11083984375	100.3226699829102	-249.6597595214844	1821.324829101563	42.69059371948243	-278.5606079101563	2022.759765625	50.65935134887697	-273.6600341796876	2011.498901367188	59.0585174560547	-328.4732971191407	1981.921630859375	36.16082763671876	-370.2464904785157	1779.7294921875	881.5410156250002	-28.74830055236817	1684.119018554688	477.5317687988282	-81.09868621826173	1710.992309570313	476.9749145507814	-204.4847412109376	1664.983764648438	426.1496887207032	-81.47874450683595	1730.424438476563	407.696258544922	-128.9991912841797	1590.091674804688	71.33046722412111	-130.9332122802735	1601.573608398438	98.93059539794925	-225.5469207763672	1533.1806640625	39.52025604248048	-189.7602691650391	1737.17578125	23.31863403320313	-213.8226623535157	1732.337524414063	39.49013137817384	-156.7020721435547	1700.535400390625	24.83235740661622	-103.1880111694336	1707.230712890625	1467.682250976563	-208.8109283447266	1628.554565429688	1243.939208984375	-208.4553375244141	1875.064819335938	1197.655395507813	-221.0287628173829	1830.274536132813	1383.263427734375	-210.8032226562501	1621.649536132813	1281.415771484375	-323.9458312988282	1656.944458007813	1418.264526367188	-288.5625305175782	1697.338256835938	1426.440673828125	-370.3177185058594	1764.652709960938	1429.785278320313	-400.3641357421876	1679.8115234375	1124.70458984375	-484.0004882812501	1645.365356445313	1126.998291015625	-405.1089172363282	1633.369506835938	1117.008666992188	-456.4296875000001	1739.77587890625	860.140319824219	-448.4531250000001	1678.851684570313	877.4133911132815	-496.9617004394532	1749.921752929688	776.3992309570315	-455.0030212402345	1652.462280273438	789.9539794921877	-496.0405273437501	1635.48095703125	1263.813842773438	-85.43426513671876	1661.391845703125	1407.381591796875	-121.0632934570313	1721.701416015625	1419.884155273438	-42.22771453857423	1784.009521484375	1422.4296875	-27.18746757507325	1710.78271484375	1110.60107421875	73.86170196533205	1683.264892578125	1094.396118164063	-16.22687339782715	1667.117553710938	1077.73876953125	38.2220573425293	1930.330078125	960.8767700195315	12.96191024780274	1879.760131835938	917.3814697265627	51.8893394470215	2000.040893554688	903.2725219726565	17.32428169250489	1914.192504882813	843.7904052734377	30.61457252502442	
127	1.26	1853.223999023438	950.3151855468752	-321.1903076171876	1656.495239257813	982.7744140625002	-252.3878021240235	1661.686279296875	984.933532714844	-161.0590972900391	1860.620849609375	953.0159301757815	-90.43959045410158	1774.999145507813	893.7462158203127	-395.6492309570314	1926.266235351563	500.0702209472657	-365.4520874023438	1951.297607421875	508.0175781250001	-239.196762084961	1914.582641601563	437.4089355468751	-371.9191589355469	1987.772583007813	425.7380981445314	-310.3659667968751	1907.20458984375	73.57909393310548	-341.9235839843751	1940.543212890625	97.96463012695315	-250.6568145751954	1869.392700195313	35.42232513427735	-280.2128295898438	2069.682373046875	56.607234954834	-272.4404296875001	2058.635009765625	63.95078659057619	-327.6987304687501	2030.941162109375	38.8476905822754	-369.7006530761719	1793.463623046875	879.0684814453127	-28.80547332763673	1690.616943359375	477.4236450195314	-81.54408264160158	1717.840087890625	476.3646850585939	-204.9539489746094	1670.644165039063	426.3910522460939	-81.91323089599611	1735.807006835938	406.6941833496095	-129.1548309326172	1590.643798828125	72.44322204589845	-131.2160034179688	1602.565185546875	99.87892150878909	-225.8565826416016	1533.482666015625	41.29366683959962	-190.1964874267578	1737.3701171875	23.45231437683106	-213.7764129638672	1732.527954101563	39.59619903564454	-156.7121276855469	1700.520751953125	25.09490203857423	-103.3089904785157	1722.82763671875	1465.470581054688	-209.6002502441407	1644.058715820313	1241.871215820313	-208.9351196289063	1890.466796875	1195.139404296875	-221.5056457519532	1845.9365234375	1380.798950195313	-211.4853820800782	1636.590209960938	1279.083374023438	-323.8929443359376	1672.498168945313	1416.04345703125	-289.1426696777344	1712.768432617188	1423.995727539063	-370.9052124023438	1780.045043945313	1427.005493164063	-401.2843627929689	1691.908447265625	1122.501342773438	-483.0692749023439	1658.046997070313	1125.413330078125	-403.9729003906251	1645.693237304688	1115.721557617188	-455.1096801757814	1745.178344726563	856.5562744140627	-448.1583251953126	1684.89794921875	875.563903808594	-496.9660034179689	1753.009643554688	772.5452270507815	-454.540252685547	1656.344604492188	788.8193969726565	-496.4902343750001	1651.256225585938	1261.875244140625	-85.81649017333986	1677.056030273438	1405.361694335938	-121.6160430908203	1737.4560546875	1417.937866210938	-42.76071166992188	1799.909057617188	1420.546752929688	-27.8605079650879	1727.735107421875	1108.985961914063	74.16114807128908	1700.069091796875	1092.035522460938	-15.9922513961792	1684.561645507813	1074.969482421875	38.78146362304688	1951.453125	967.6981201171877	11.04004287719727	1903.209350585938	922.0396728515627	50.44915771484376	2023.6015625	913.1292724609377	14.5246639251709	1940.238037109375	850.120788574219	28.37879753112794	
128	1.27	1869.497192382813	947.9226684570315	-321.4400329589844	1672.174438476563	979.5256958007815	-253.2554168701172	1676.811401367188	981.653015136719	-162.1363372802735	1875.697387695313	950.3289794921877	-90.22647094726564	1791.153686523438	890.9426269531252	-395.990692138672	1942.724853515625	497.5765991210939	-365.2955322265626	1964.858276367188	504.764129638672	-238.4978179931641	1933.892456054688	434.7813415527345	-371.9647216796876	2006.999389648438	426.2402343750001	-309.5275878906251	1952.031860351563	70.4346389770508	-343.1359863281251	1982.712768554688	96.877067565918	-251.6452178955079	1916.291015625	29.72491836547852	-281.7709045410157	2114.81787109375	63.6526222229004	-271.1235046386719	2104.148193359375	69.97210693359376	-326.7731628417969	2078.404296875	42.79067993164063	-368.9993591308594	1807.298706054688	876.619323730469	-28.87532424926759	1697.563354492188	477.4029846191407	-81.98491668701173	1725.179443359375	475.8857727050782	-205.416732788086	1676.783203125	426.7199707031251	-82.30036926269533	1741.631591796875	405.7699584960939	-129.3308410644532	1591.285766601563	73.71911621093751	-131.3419189453125	1603.596557617188	101.0038528442383	-226.0138549804688	1533.724853515625	43.34528350830079	-190.3850250244141	1737.615234375	23.5970573425293	-213.7030029296876	1732.818969726563	39.71072006225587	-156.6492462158203	1700.60595703125	25.30855560302735	-103.3549270629883	1738.397338867188	1463.101440429688	-210.4832305908204	1659.552490234375	1239.643920898438	-209.5667114257813	1905.921875	1192.498657226563	-222.0544128417969	1861.63037109375	1378.199340820313	-212.2639923095704	1651.593627929688	1276.528076171875	-323.9512634277344	1688.0419921875	1413.636596679688	-289.8076477050782	1728.192016601563	1421.376098632813	-371.5900573730469	1795.419555664063	1424.06884765625	-402.2998046875001	1704.11474609375	1120.120361328125	-482.1580505371095	1670.881225585938	1123.609130859375	-402.8413696289064	1658.1513671875	1114.209716796875	-453.7862243652345	1750.982299804688	853.0076904296877	-447.9237670898439	1691.293090820313	873.6688232421877	-496.9471740722657	1756.629150390625	768.8152465820315	-454.2333374023439	1660.741088867188	787.665222167969	-496.8875732421876	1667.001708984375	1259.716796875	-86.34700012207033	1692.653442382813	1403.147338867188	-122.296501159668	1753.154174804688	1415.785522460938	-43.37799835205079	1815.760375976563	1418.498168945313	-28.61473655700684	1744.647827148438	1107.149780273438	74.31127929687501	1716.853515625	1089.472778320313	-15.91563224792481	1701.955688476563	1072.023803710938	39.12211608886719	1971.936157226563	973.997253417969	9.133236885070803	1925.975219726563	926.4349365234377	49.09959411621095	2046.341674804688	922.4400634765627	11.92162132263184	1965.418212890625	856.143005371094	26.3501377105713	
129	1.28	1885.894775390625	945.3800048828127	-321.7059936523438	1688.087280273438	976.1680908203127	-254.1944122314454	1692.086059570313	978.2935180664065	-163.282455444336	1890.896606445313	947.6539306640627	-90.09232330322267	1807.440063476563	887.928405761719	-396.2956542968751	1958.978515625	494.9160766601564	-365.1035461425782	1978.223022460938	501.2029418945314	-237.7718505859376	1952.956787109375	432.235321044922	-371.9802246093751	2025.846923828125	426.5886840820314	-308.6571044921876	1995.176635742188	68.61776733398439	-344.2118225097657	2023.190185546875	96.89585113525393	-252.5560150146485	1961.428588867188	25.49710655212403	-283.1493530273438	2157.75341796875	71.47175598144533	-269.7559204101563	2147.589111328125	76.81774139404298	-325.7278442382813	2123.80078125	47.71369552612305	-368.1431274414063	1821.252563476563	874.2522583007815	-28.97293663024903	1704.975708007813	477.4825439453126	-82.4108352661133	1733.053588867188	475.5411987304689	-205.8480682373047	1683.42822265625	427.1465454101564	-82.62808227539064	1747.92578125	404.934783935547	-129.5240020751953	1592.024047851563	75.18702697753908	-131.2996368408203	1604.681762695313	102.3390579223633	-226.0017089843751	1533.912841796875	45.71228408813477	-190.3142395019532	1737.922241210938	23.73136138916016	-213.6019287109376	1733.228149414063	39.81662368774415	-156.5047760009766	1700.791748046875	25.44624900817872	-103.3258209228516	1753.941040039063	1460.620239257813	-211.465805053711	1675.025512695313	1237.298583984375	-210.3496246337891	1921.445922851563	1189.791625976563	-222.6909179687501	1877.352294921875	1375.513793945313	-213.1452636718751	1666.669921875	1273.80029296875	-324.1231994628907	1703.578247070313	1411.080810546875	-290.5612792968751	1743.61181640625	1418.627685546875	-372.3792419433594	1810.773193359375	1421.027954101563	-403.416717529297	1716.452758789063	1117.606079101563	-481.2803955078126	1683.890869140625	1121.628173828125	-401.7295837402345	1670.760498046875	1112.514404296875	-452.4776916503907	1757.237548828125	849.516296386719	-447.7572021484376	1698.071533203125	871.751647949219	-496.9048156738282	1760.828491210938	765.2127685546876	-454.0848693847657	1665.67431640625	786.502868652344	-497.2164611816407	1682.715454101563	1257.375	-87.02119445800783	1708.190307617188	1400.777709960938	-123.1131820678711	1768.800659179688	1413.476684570313	-44.09514999389649	1831.5625	1416.329833984375	-29.46099281311036	1761.514038085938	1105.133911132813	74.3041458129883	1733.630249023438	1086.7568359375	-16.00386428833008	1719.25830078125	1068.965698242188	39.21734619140626	1991.809936523438	979.698181152344	7.260606765747072	1948.047119140625	930.5102539062502	47.8360710144043	2068.28857421875	931.0960693359377	9.547276496887209	1989.723754882813	861.7493286132815	24.53995513916016	
